<mxfile host="Electron" modified="2023-11-04T15:22:57.606Z" agent="Mozilla/5.0 (Windows NT 10.0; Win64; x64) AppleWebKit/537.36 (KHTML, like Gecko) draw.io/21.7.5 Chrome/114.0.5735.289 Electron/25.8.1 Safari/537.36" etag="aJrVoqqZNya48PYhqGDO" version="21.7.5" type="device">
  <diagram id="ONLkznn9dfXko7KyWMJE" name="Page-1">
    <mxGraphModel dx="1036" dy="606" grid="1" gridSize="10" guides="1" tooltips="1" connect="1" arrows="1" fold="1" page="1" pageScale="1" pageWidth="850" pageHeight="1100" math="0" shadow="0">
      <root>
        <mxCell id="0" />
        <mxCell id="1" parent="0" />
        <mxCell id="bgXQf1ykJbpGTAjlQ5FK-6" value="" style="endArrow=none;dashed=1;html=1;dashPattern=1 3;strokeWidth=2;rounded=0;" parent="1" edge="1">
          <mxGeometry width="50" height="50" relative="1" as="geometry">
            <mxPoint x="60" y="440" as="sourcePoint" />
            <mxPoint x="60" y="120" as="targetPoint" />
          </mxGeometry>
        </mxCell>
        <mxCell id="4" value="" style="endArrow=none;dashed=1;html=1;dashPattern=1 3;strokeWidth=2;rounded=0;entryX=0.5;entryY=1;entryDx=0;entryDy=0;startArrow=none;" parent="1" source="jMet_jhxjHjyP2RQHkVr-26" edge="1">
          <mxGeometry width="50" height="50" relative="1" as="geometry">
            <mxPoint x="699" y="880" as="sourcePoint" />
            <mxPoint x="703.8300000000004" y="110" as="targetPoint" />
          </mxGeometry>
        </mxCell>
        <mxCell id="bgXQf1ykJbpGTAjlQ5FK-1" value="Admin" style="shape=umlActor;verticalLabelPosition=bottom;verticalAlign=top;html=1;outlineConnect=0;" parent="1" vertex="1">
          <mxGeometry x="50" y="40" width="30" height="60" as="geometry" />
        </mxCell>
        <mxCell id="bgXQf1ykJbpGTAjlQ5FK-2" value="List Of User Page" style="rounded=0;whiteSpace=wrap;html=1;" parent="1" vertex="1">
          <mxGeometry x="225" y="50" width="120" height="60" as="geometry" />
        </mxCell>
        <mxCell id="bgXQf1ykJbpGTAjlQ5FK-3" value="AdminController" style="rounded=0;whiteSpace=wrap;html=1;" parent="1" vertex="1">
          <mxGeometry x="434.72" y="50" width="120" height="60" as="geometry" />
        </mxCell>
        <mxCell id="bgXQf1ykJbpGTAjlQ5FK-7" value="" style="endArrow=none;dashed=1;html=1;dashPattern=1 3;strokeWidth=2;rounded=0;entryX=0.5;entryY=1;entryDx=0;entryDy=0;" parent="1" edge="1">
          <mxGeometry width="50" height="50" relative="1" as="geometry">
            <mxPoint x="285" y="440" as="sourcePoint" />
            <mxPoint x="285" y="110.00000000000006" as="targetPoint" />
          </mxGeometry>
        </mxCell>
        <mxCell id="bgXQf1ykJbpGTAjlQ5FK-8" value="" style="endArrow=none;dashed=1;html=1;dashPattern=1 3;strokeWidth=2;rounded=0;entryX=0.5;entryY=1;entryDx=0;entryDy=0;" parent="1" target="bgXQf1ykJbpGTAjlQ5FK-3" edge="1">
          <mxGeometry width="50" height="50" relative="1" as="geometry">
            <mxPoint x="495" y="440" as="sourcePoint" />
            <mxPoint x="494.72" y="120" as="targetPoint" />
          </mxGeometry>
        </mxCell>
        <mxCell id="Q8KxY11AjHxzNU5WDFav-2" value="1. Click on &quot;Delete&quot;" style="endArrow=classic;html=1;rounded=0;entryX=-0.044;entryY=0.029;entryDx=0;entryDy=0;entryPerimeter=0;" parent="1" edge="1">
          <mxGeometry x="-0.0751" y="12" width="50" height="50" relative="1" as="geometry">
            <mxPoint x="58" y="152" as="sourcePoint" />
            <mxPoint x="278.5600000000002" y="152.09199999999998" as="targetPoint" />
            <mxPoint as="offset" />
          </mxGeometry>
        </mxCell>
        <mxCell id="Q8KxY11AjHxzNU5WDFav-6" value="Database" style="shape=cylinder3;whiteSpace=wrap;html=1;boundedLbl=1;backgroundOutline=1;size=15;" parent="1" vertex="1">
          <mxGeometry x="900.1800000000001" y="40" width="80" height="80" as="geometry" />
        </mxCell>
        <mxCell id="Q8KxY11AjHxzNU5WDFav-7" value="" style="endArrow=none;dashed=1;html=1;dashPattern=1 3;strokeWidth=2;rounded=0;entryX=0.5;entryY=1;entryDx=0;entryDy=0;startArrow=none;" parent="1" source="jMet_jhxjHjyP2RQHkVr-27" edge="1">
          <mxGeometry width="50" height="50" relative="1" as="geometry">
            <mxPoint x="940.1800000000001" y="880" as="sourcePoint" />
            <mxPoint x="940.1800000000001" y="120" as="targetPoint" />
          </mxGeometry>
        </mxCell>
        <mxCell id="Q8KxY11AjHxzNU5WDFav-8" value="" style="endArrow=classic;html=1;rounded=0;entryX=-0.132;entryY=0.022;entryDx=0;entryDy=0;entryPerimeter=0;exitX=1;exitY=0.053;exitDx=0;exitDy=0;exitPerimeter=0;" parent="1" edge="1">
          <mxGeometry x="-0.04" y="-4" width="50" height="50" relative="1" as="geometry">
            <mxPoint x="291" y="160.44400000000007" as="sourcePoint" />
            <mxPoint x="488.39999999999986" y="160.58399999999995" as="targetPoint" />
            <mxPoint as="offset" />
          </mxGeometry>
        </mxCell>
        <mxCell id="12" value="2. doGet()" style="edgeLabel;html=1;align=center;verticalAlign=middle;resizable=0;points=[];" parent="Q8KxY11AjHxzNU5WDFav-8" vertex="1" connectable="0">
          <mxGeometry x="-0.5239" y="-2" relative="1" as="geometry">
            <mxPoint x="42" y="-14" as="offset" />
          </mxGeometry>
        </mxCell>
        <mxCell id="Q8KxY11AjHxzNU5WDFav-9" value="" style="rounded=0;whiteSpace=wrap;html=1;" parent="1" vertex="1">
          <mxGeometry x="489.72" y="148" width="10" height="242" as="geometry" />
        </mxCell>
        <mxCell id="jMet_jhxjHjyP2RQHkVr-25" value="4. disableUser(user)" style="endArrow=classic;html=1;rounded=0;exitX=1.028;exitY=0.068;exitDx=0;exitDy=0;exitPerimeter=0;entryX=-0.026;entryY=0.042;entryDx=0;entryDy=0;entryPerimeter=0;" parent="1" target="jMet_jhxjHjyP2RQHkVr-26" edge="1">
          <mxGeometry x="-0.0145" y="-1" width="50" height="50" relative="1" as="geometry">
            <mxPoint x="503" y="219.44000000000005" as="sourcePoint" />
            <mxPoint x="695.81" y="221.05344999999988" as="targetPoint" />
            <Array as="points" />
            <mxPoint as="offset" />
          </mxGeometry>
        </mxCell>
        <mxCell id="jMet_jhxjHjyP2RQHkVr-28" value="" style="endArrow=classic;html=1;rounded=0;entryX=-0.018;entryY=0.195;entryDx=0;entryDy=0;entryPerimeter=0;" parent="1" target="jMet_jhxjHjyP2RQHkVr-27" edge="1">
          <mxGeometry x="-0.717" width="50" height="50" relative="1" as="geometry">
            <mxPoint x="720" y="290" as="sourcePoint" />
            <mxPoint x="843.7299999999998" y="230.1599999999999" as="targetPoint" />
            <mxPoint as="offset" />
          </mxGeometry>
        </mxCell>
        <mxCell id="65" value="6. executeUpdate()" style="edgeLabel;html=1;align=center;verticalAlign=middle;resizable=0;points=[];" parent="jMet_jhxjHjyP2RQHkVr-28" vertex="1" connectable="0">
          <mxGeometry x="-0.1772" y="-1" relative="1" as="geometry">
            <mxPoint x="29" as="offset" />
          </mxGeometry>
        </mxCell>
        <mxCell id="jMet_jhxjHjyP2RQHkVr-33" value="" style="rounded=0;whiteSpace=wrap;html=1;" parent="1" vertex="1">
          <mxGeometry x="495.72" y="180" width="10" height="180" as="geometry" />
        </mxCell>
        <mxCell id="jMet_jhxjHjyP2RQHkVr-34" value="3. deleteUser(request)&amp;nbsp;" style="endArrow=classic;html=1;rounded=0;entryX=1.048;entryY=0.111;entryDx=0;entryDy=0;entryPerimeter=0;" parent="1" target="jMet_jhxjHjyP2RQHkVr-33" edge="1">
          <mxGeometry x="0.0298" y="10" width="50" height="50" relative="1" as="geometry">
            <mxPoint x="501" y="170" as="sourcePoint" />
            <mxPoint x="510" y="200" as="targetPoint" />
            <mxPoint as="offset" />
            <Array as="points">
              <mxPoint x="592" y="170" />
              <mxPoint x="592.1" y="200" />
              <mxPoint x="552.1" y="200" />
            </Array>
          </mxGeometry>
        </mxCell>
        <mxCell id="3" value="uDAO:userDAO" style="rounded=0;whiteSpace=wrap;html=1;" parent="1" vertex="1">
          <mxGeometry x="644" y="50" width="120" height="60" as="geometry" />
        </mxCell>
        <mxCell id="UKkm2dZgcp-LxVbKbilb-54" value="" style="endArrow=none;dashed=1;html=1;dashPattern=1 3;strokeWidth=2;rounded=0;entryX=0.5;entryY=1;entryDx=0;entryDy=0;" parent="1" target="jMet_jhxjHjyP2RQHkVr-26" edge="1">
          <mxGeometry width="50" height="50" relative="1" as="geometry">
            <mxPoint x="704" y="440" as="sourcePoint" />
            <mxPoint x="703.8300000000004" y="110" as="targetPoint" />
          </mxGeometry>
        </mxCell>
        <mxCell id="jMet_jhxjHjyP2RQHkVr-26" value="" style="rounded=0;whiteSpace=wrap;html=1;" parent="1" vertex="1">
          <mxGeometry x="699" y="214.87" width="10" height="135.13" as="geometry" />
        </mxCell>
        <mxCell id="63" value="" style="endArrow=none;dashed=1;html=1;dashPattern=1 3;strokeWidth=2;rounded=0;entryX=0.5;entryY=1;entryDx=0;entryDy=0;startArrow=none;" parent="1" target="jMet_jhxjHjyP2RQHkVr-27" edge="1">
          <mxGeometry width="50" height="50" relative="1" as="geometry">
            <mxPoint x="940" y="440" as="sourcePoint" />
            <mxPoint x="940.1800000000001" y="120" as="targetPoint" />
          </mxGeometry>
        </mxCell>
        <mxCell id="jMet_jhxjHjyP2RQHkVr-27" value="" style="rounded=0;whiteSpace=wrap;html=1;" parent="1" vertex="1">
          <mxGeometry x="935.18" y="280" width="10" height="50" as="geometry" />
        </mxCell>
        <mxCell id="Q8KxY11AjHxzNU5WDFav-1" value="" style="rounded=0;whiteSpace=wrap;html=1;" parent="1" vertex="1">
          <mxGeometry x="280" y="142" width="10" height="278" as="geometry" />
        </mxCell>
        <mxCell id="79" value="" style="endArrow=open;html=1;rounded=0;dashed=1;endFill=0;exitX=-0.018;exitY=0.282;exitDx=0;exitDy=0;exitPerimeter=0;" parent="1" edge="1">
          <mxGeometry x="0.7166" y="2" width="50" height="50" relative="1" as="geometry">
            <mxPoint x="489.53999999999996" y="370.00400000000013" as="sourcePoint" />
            <mxPoint x="290" y="370.78" as="targetPoint" />
            <mxPoint as="offset" />
          </mxGeometry>
        </mxCell>
        <mxCell id="80" value="8. send the list of Customers" style="edgeLabel;html=1;align=center;verticalAlign=middle;resizable=0;points=[];" parent="79" vertex="1" connectable="0">
          <mxGeometry x="0.1138" relative="1" as="geometry">
            <mxPoint x="11" as="offset" />
          </mxGeometry>
        </mxCell>
        <mxCell id="81" value="" style="endArrow=open;html=1;rounded=0;dashed=1;endFill=0;exitX=0.11;exitY=0.279;exitDx=0;exitDy=0;exitPerimeter=0;" parent="1" edge="1">
          <mxGeometry x="0.7166" y="2" width="50" height="50" relative="1" as="geometry">
            <mxPoint x="280" y="390.00199999999995" as="sourcePoint" />
            <mxPoint x="63.26" y="390" as="targetPoint" />
            <mxPoint as="offset" />
          </mxGeometry>
        </mxCell>
        <mxCell id="82" value="9. display the list of Customers" style="edgeLabel;html=1;align=center;verticalAlign=middle;resizable=0;points=[];" parent="81" vertex="1" connectable="0">
          <mxGeometry x="0.1138" relative="1" as="geometry">
            <mxPoint x="11" y="-10" as="offset" />
          </mxGeometry>
        </mxCell>
        <mxCell id="99" value="" style="endArrow=open;html=1;rounded=0;dashed=1;endFill=0;exitX=0;exitY=0.5;exitDx=0;exitDy=0;entryX=1.055;entryY=0.2;entryDx=0;entryDy=0;entryPerimeter=0;" parent="1" edge="1">
          <mxGeometry x="0.7166" y="2" width="50" height="50" relative="1" as="geometry">
            <mxPoint x="698.4499999999998" y="340" as="sourcePoint" />
            <mxPoint x="505.7200000000001" y="340.1300000000001" as="targetPoint" />
            <mxPoint as="offset" />
          </mxGeometry>
        </mxCell>
        <mxCell id="100" value="7. return Result" style="edgeLabel;html=1;align=center;verticalAlign=middle;resizable=0;points=[];" parent="99" vertex="1" connectable="0">
          <mxGeometry x="0.1138" relative="1" as="geometry">
            <mxPoint x="11" y="-1" as="offset" />
          </mxGeometry>
        </mxCell>
        <mxCell id="PtWtp0XcKpWmhvqdv3vN-109" value="" style="endArrow=open;html=1;rounded=0;dashed=1;endFill=0;exitX=0.06;exitY=0.787;exitDx=0;exitDy=0;entryX=1.064;entryY=0.833;entryDx=0;entryDy=0;exitPerimeter=0;entryPerimeter=0;" parent="1" source="jMet_jhxjHjyP2RQHkVr-27" target="PtWtp0XcKpWmhvqdv3vN-108" edge="1">
          <mxGeometry x="0.7166" y="2" width="50" height="50" relative="1" as="geometry">
            <mxPoint x="934" y="250" as="sourcePoint" />
            <mxPoint x="708.22" y="250" as="targetPoint" />
            <mxPoint as="offset" />
          </mxGeometry>
        </mxCell>
        <mxCell id="PtWtp0XcKpWmhvqdv3vN-108" value="" style="rounded=0;whiteSpace=wrap;html=1;" parent="1" vertex="1">
          <mxGeometry x="709" y="270" width="10" height="60" as="geometry" />
        </mxCell>
        <mxCell id="PtWtp0XcKpWmhvqdv3vN-110" value="5. updateUser(user)&amp;nbsp;" style="endArrow=classic;html=1;rounded=0;" parent="1" edge="1">
          <mxGeometry x="0.0298" y="10" width="50" height="50" relative="1" as="geometry">
            <mxPoint x="710" y="250" as="sourcePoint" />
            <mxPoint x="720" y="280" as="targetPoint" />
            <mxPoint as="offset" />
            <Array as="points">
              <mxPoint x="810" y="250" />
              <mxPoint x="810.1" y="280" />
              <mxPoint x="770.1" y="280" />
            </Array>
          </mxGeometry>
        </mxCell>
      </root>
    </mxGraphModel>
  </diagram>
</mxfile>
